<?xml version="1.0" encoding="UTF-8"?>
<svg width="233px" height="361px" viewBox="0 0 233 361" version="1.1" xmlns="http://www.w3.org/2000/svg" xmlns:xlink="http://www.w3.org/1999/xlink">
    <!-- Generator: Sketch 52.6 (67491) - http://www.bohemiancoding.com/sketch -->
    <title>Hero Image</title>
    <desc>Created with Sketch.</desc>
    <g id="ðŸ -Home" stroke="none" stroke-width="1" fill="none" fill-rule="evenodd">
        <g id="Home/V3" transform="translate(-989.000000, -185.000000)">
            <g id="Hero-Image" transform="translate(1121.146504, 348.480823) rotate(-11.000000) translate(-1121.146504, -348.480823) translate(1009.146504, 163.980823)">
                <g id="Head" transform="translate(70.046156, 53.958008) rotate(7.000000) translate(-70.046156, -53.958008) translate(6.046156, 7.458008)">
                    <g transform="translate(94.211968, 31.545314)" fill="#FAECC6">
                        <path d="M6.30564006,28.4213265 C2.78895454,23.9642865 0.408788218,18.5021225 0.806515407,12.3816109 C1.95247819,-5.25328718 24.6878999,-1.37383429 29.1104101,7.5267479 C33.5329203,16.4273301 33.0074112,39.004395 27.2917107,40.5951773 C25.0122973,41.229579 20.156469,39.6755487 15.2143686,36.4591836 L18.31643,60.1550944 L0,60.1550944 L6.30564006,28.4213265 Z"></path>
                    </g>
                    <path d="M112.882477,28.8138251 C110.468425,28.3863787 103.968482,28.0924975 102.769776,28.0926872 C102.003747,28.0926872 101.173604,28.2816515 100.719908,27.5221895 C100.348367,26.9002768 100.484476,25.8484513 100.373592,25.1267442 C100.24484,24.2883574 100.06196,23.4607847 99.8769775,22.635299 C99.3505841,20.286336 98.5546001,18.0515863 97.4408533,15.9534373 C95.3510452,12.0170601 92.2895551,8.93367849 88.4245487,7.13946609 C84.1564703,5.15837632 79.3267888,4.70474813 74.7358675,5.10658189 C69.8229791,5.53649468 65.3756992,7.28763992 60.737131,8.93557572 C56.3168277,10.5059147 51.6870181,11.124033 47.063865,10.3571717 C42.4058526,9.58461883 38.8862864,6.85867574 34.957342,4.27142031 C30.9352059,1.62269457 26.338679,-0.109668066 21.5837962,0.288560953 C17.145275,0.660418446 13.0544712,2.63923153 9.38425663,5.28264503 C5.95034979,7.7558768 3.11693433,10.7314956 1.5172589,14.9194458 C-0.203635904,19.4244234 -0.202059351,24.3693692 2.62785266,28.3507108 C6.72969231,34.1217114 14.3446168,35.6140742 20.679906,35.4657106 C24.3443399,35.3801454 27.9432593,34.6578692 31.4029165,33.3440359 C36.0167854,31.5917524 40.0038871,28.6218252 44.3203131,26.2121507 C46.346008,25.0814004 48.4398451,24.1527053 50.6345816,23.4837412 C52.7643291,22.8343187 54.8620199,22.5364532 56.790319,23.9256066 C58.830203,25.3952026 60.6581282,26.8388065 62.9917765,27.7587743 C65.2304812,28.6413667 67.6017916,29.1350265 69.9869406,29.1151056 C74.6276109,29.076402 79.2022412,27.5151697 83.70943,26.4694154 C87.3848998,25.6167993 91.3175228,24.767029 95.0646381,25.5866333 C96.628228,25.9287043 98.9121272,26.634854 99.4768834,28.3894143 C89.9718475,30.2494606 86.2387547,42.9419434 88.9183687,52.25944 C90.364593,57.2884332 99.058046,63.167273 102.438175,60.5234554 C104.579584,58.8485208 103.279528,56.6496351 102.438175,55.1980628 C100.826938,52.4182384 100.27567,48.8474578 103.257106,46.9120913 C105.828814,45.2429065 108.532788,49.2067775 108.583938,49.2024138 C109.290759,49.1422716 115.398308,45.412749 119.606297,39.9704297 C123.757495,40.2361312 124.387292,37.2806693 123.396067,34.8636569 C122.404842,32.4466446 116.217937,29.4048129 112.882477,28.8138251 Z" id="hair" fill="#2E284C"></path>
                </g>
                <g id="Bottom" transform="translate(15.220434, 147.572284)">
                    <path d="M145.027575,17.18789 C129.14527,29.9854148 130.814868,136.826875 129.733911,138.213947 C129.253485,138.830423 104.641799,144.857162 55.8988507,156.294164 L57.6622281,164.501216 C114.346557,159.617878 144.417385,155.071871 147.874713,150.863195 C152.824615,144.837576 159.939324,111.921141 169.218838,52.1138908 L145.027575,17.18789 Z" id="Leg" fill="#FAECC6" transform="translate(112.558844, 90.844553) rotate(-55.000000) translate(-112.558844, -90.844553) "></path>
                    <path d="M63.6208349,147.325112 L66.7757493,160.53118 C108.765613,163.634656 136.796415,156.748396 146.936814,147.324847 C153.69708,141.042481 160.823337,108.214331 168.315584,48.8403976 L142.421806,11.8602506 C104.699961,40.1537916 123.110736,127.374718 122.094788,129.425134 C121.078841,131.47555 98.774917,133.915116 63.6208349,147.325112 Z" id="Pant" fill="#524888" transform="translate(115.968209, 86.572613) rotate(-55.000000) translate(-115.968209, -86.572613) "></path>
                    <g id="Right-Show" transform="translate(148.738076, 184.097386) rotate(20.000000) translate(-148.738076, -184.097386) translate(126.238076, 174.597386)" fill="#E1DED5">
                        <path d="M1.86852732,6.51106042 C1.13063299,8.72880315 0.761685824,10.4081354 0.761685824,11.5490572 C0.761685824,13.0402439 0.990507065,15.2162561 1.44814955,18.0770939 C3.04154949,18.0770939 17.3617031,18.0770939 44.4086103,18.0770939 C45.5250004,14.0702234 44.8805553,11.907043 42.475275,11.5875526 C40.0699947,11.2680622 38.0718875,10.9795879 36.4809535,10.7221298 L16.780542,1.18732737 C16.2834209,0.94672576 15.6853786,1.15467583 15.444777,1.65179685 C15.4320168,1.67816148 15.420421,1.705074 15.4100234,1.73245657 L14.2155048,4.8782543 C11.9888444,6.00614774 10.1794516,6.57009446 8.78732648,6.57009446 C7.7562064,6.57009446 6.36693698,6.15793973 4.61951821,5.33363027 L4.61951506,5.33363695 C3.6205234,4.86238284 2.42865372,5.29019865 1.95739961,6.28919031 C1.92337898,6.3613092 1.89370191,6.43539816 1.86852732,6.51106042 Z" id="shoe"></path>
                    </g>
                    <polygon id="Leg" fill="#FAECC6" points="81.0191571 22 41.6049911 124.726628 2.86700059 211.573334 12.0065463 211.573334 111.999728 22"></polygon>
                    <g id="Left-Shot" transform="translate(0.280460, 201.558542)" fill="#E1DED5">
                        <path d="M1.86852732,6.51106042 C1.13063299,8.72880315 0.761685824,10.4081354 0.761685824,11.5490572 C0.761685824,13.0402439 0.990507065,15.2162561 1.44814955,18.0770939 C3.04154949,18.0770939 17.3617031,18.0770939 44.4086103,18.0770939 C45.5250004,14.0702234 44.8805553,11.907043 42.475275,11.5875526 C40.0699947,11.2680622 38.0718875,10.9795879 36.4809535,10.7221298 L16.780542,1.18732737 C16.2834209,0.94672576 15.6853786,1.15467583 15.444777,1.65179685 C15.4320168,1.67816148 15.420421,1.705074 15.4100234,1.73245657 L14.2155048,4.8782543 C11.9888444,6.00614774 10.1794516,6.57009446 8.78732648,6.57009446 C7.7562064,6.57009446 6.36693698,6.15793973 4.61951821,5.33363027 L4.61951506,5.33363695 C3.6205234,4.86238284 2.42865372,5.29019865 1.95739961,6.28919031 C1.92337898,6.3613092 1.89370191,6.43539816 1.86852732,6.51106042 Z" id="shoe"></path>
                    </g>
                    <path d="M6.36522415,193.531928 L26.673396,197.666565 C42.3756175,172.604039 108.090056,69.8392677 115.295019,22 L70.0844511,22 C46.0234109,56.5829467 21.3326841,168.05482 6.36522415,193.531928 Z" id="Pant" fill="#8075B6"></path>
                </g>
                <g id="Body" transform="translate(13.588555, 84.590330)">
                    <path d="M149.59806,64.2459594 L177.157937,51.07437 C181.985784,45.8388547 186.647759,41.859621 191.143862,39.1366688 C192.488282,38.6708716 194.785161,38.5301487 192.334571,42.425419 C189.883981,46.3206893 187.467304,50.537869 188.446495,51.9030286 C189.425687,53.2681883 192.262191,51.7614238 193.382807,53.9814412 C194.129884,55.4614528 189.34856,57.2318558 179.038834,59.2926502 L158.398114,76.5147321 L149.59806,64.2459594 Z M38.1770075,67.8738256 L53.762931,71.2392454 C38.0886259,103.028377 29.6827776,119.876636 28.5453861,121.784021 C25.9862554,126.075636 28.3739762,133.940915 29.2559902,138.082825 C23.7227286,139.484535 25.904877,130.421216 18.9026413,132.313554 C12.5113252,134.040793 7.09225989,138.473504 1.13261944,132.495286 C0.399916665,131.760299 -0.136456408,129.462939 2.3616985,128.284634 C8.58551341,125.349046 17.7806758,119.852216 19.2716721,117.718125 C21.304912,114.807911 27.6066905,98.1931446 38.1770075,67.8738256 Z" id="Skin" fill="#FAECC6"></path>
                    <path d="M92.4710363,7.87629609 L98.9159806,6.08008491 C114.504769,19.8967132 123.494934,55.580903 133.424517,59.5396851 C142.812536,63.2825535 155.175508,57.7842069 169.808891,50.5402253 L175.435889,61.4162592 C163.087595,78.8285875 134.958108,95.0876104 122.386517,88.3104594 C102.287155,77.4752036 93.9940759,33.2195553 92.4710363,7.87629609 Z" id="Coat-Back" fill="#C29927" transform="translate(133.953463, 47.982038) rotate(5.000000) translate(-133.953463, -47.982038) "></path>
                    <path d="M67.4536638,94.3611722 C93.8248718,94.3611722 113.22298,94.3611722 125.647987,94.3611722 C128.307171,94.3611722 127.806099,90.1824929 127.421698,88.0739084 C122.985244,63.7382952 105.667012,37.5056817 105.667012,2.86454884 L88.8810297,0 C74.9968658,24.3008218 70.1954812,54.2200536 67.4536638,94.3611722 Z" id="Shirt" fill="#EDEBE6"></path>
                    <path d="M61.649367,69.7222862 C49.786063,93.0101786 39.814314,109.776346 31.73412,120.020789 L19.5360991,117.420742 C27.3935094,64.3896405 50.1475208,25.2493933 87.7981333,1.44630434e-14 L87.9897629,7.25651744e-15 L94.4444855,0 C109.513818,55.9023294 113.668166,93.1501606 106.90753,111.743493 L54.5235273,111.743493 C55.3522944,98.1384751 58.0096414,83.7506715 61.6493682,69.7222833 Z" id="Coat-Front" fill="#F0C654"></path>
                </g>
            </g>
        </g>
    </g>
</svg>